<?xml version="1.0" standalone="no"?>
<!DOCTYPE svg PUBLIC "-//W3C//DTD SVG 20010904//EN"
 "http://www.w3.org/TR/2001/REC-SVG-20010904/DTD/svg10.dtd">
<svg version="1.0" xmlns="http://www.w3.org/2000/svg"
 width="521.000000pt" height="361.000000pt" viewBox="0 0 521.000000 361.000000"
 preserveAspectRatio="xMidYMid meet">

<g transform="translate(0.000000,361.000000) scale(0.100000,-0.100000)"
fill="#000000" stroke="none">
<path d="M2348 3045 c-3 -3 -3 -27 0 -53 l4 -47 -37 48 c-55 69 -71 61 -58
-31 10 -66 29 -69 24 -4 l-3 47 33 -42 c19 -23 42 -42 52 -42 17 -1 18 5 12
57 -7 56 -16 78 -27 67z"/>
<path d="M2654 3030 c-15 -15 -2 -91 18 -104 9 -5 21 -7 25 -2 4 4 0 12 -10
17 -21 12 -22 55 -1 63 14 5 14 8 0 21 -17 18 -19 18 -32 5z"/>
<path d="M2926 2994 c-9 -69 -8 -100 4 -88 14 14 25 134 13 134 -6 0 -13 -21
-17 -46z"/>
<path d="M2416 3004 c-32 -31 -8 -84 38 -84 23 0 46 17 46 34 0 6 -5 5 -12 -2
-14 -14 -54 -16 -62 -3 -3 5 13 11 35 14 52 7 56 12 34 37 -22 24 -58 26 -79
4z m64 -14 c0 -5 -14 -10 -31 -10 -17 0 -28 4 -24 10 3 6 17 10 31 10 13 0 24
-4 24 -10z"/>
<path d="M2530 2980 c0 -45 19 -61 63 -53 25 5 27 9 27 49 0 54 -18 59 -22 7
-2 -30 -7 -38 -23 -38 -16 0 -21 8 -23 38 -4 49 -22 48 -22 -3z"/>
<path d="M2720 2978 c0 -21 0 -40 0 -43 0 -3 3 -6 8 -7 4 -2 8 12 10 31 2 23
9 35 23 38 30 8 22 22 -11 21 -28 -1 -30 -4 -30 -40z"/>
<path d="M2802 2998 c-18 -18 -15 -66 6 -77 33 -17 80 -10 86 13 11 42 6 64
-16 70 -36 9 -63 7 -76 -6z m71 -20 c7 -21 -12 -48 -34 -48 -22 0 -34 22 -25
45 7 18 53 20 59 3z"/>
<path d="M2090 2923 c14 -3 32 -10 40 -16 13 -11 13 -10 1 6 -7 9 -25 16 -40
16 l-26 -2 25 -4z"/>
<path d="M3072 2918 c-7 -7 -12 -19 -11 -27 0 -11 3 -10 8 4 4 11 21 23 37 26
28 6 28 7 4 8 -15 0 -31 -4 -38 -11z"/>
<path d="M2015 2910 c-13 -5 -14 -9 -5 -9 8 0 24 4 35 9 13 5 14 9 5 9 -8 0
-24 -4 -35 -9z"/>
<path d="M3148 2913 c7 -3 16 -2 19 1 4 3 -2 6 -13 5 -11 0 -14 -3 -6 -6z"/>
<path d="M3188 2903 c7 -3 16 -2 19 1 4 3 -2 6 -13 5 -11 0 -14 -3 -6 -6z"/>
<path d="M1945 2890 c-13 -5 -14 -9 -5 -9 8 0 24 4 35 9 13 5 14 9 5 9 -8 0
-24 -4 -35 -9z"/>
<path d="M2141 2874 c0 -11 3 -14 6 -6 3 7 2 16 -1 19 -3 4 -6 -2 -5 -13z"/>
<path d="M3329 2859 c30 -10 56 -17 58 -15 5 5 -86 36 -101 35 -6 0 13 -9 43
-20z"/>
<path d="M3052 2850 c0 -14 2 -19 5 -12 2 6 2 18 0 25 -3 6 -5 1 -5 -13z"/>
<path d="M1815 2845 c-25 -12 -26 -14 -5 -9 28 7 60 23 45 23 -5 0 -23 -6 -40
-14z"/>
<path d="M2152 2830 c0 -14 2 -19 5 -12 2 6 2 18 0 25 -3 6 -5 1 -5 -13z"/>
<path d="M3410 2830 c8 -5 20 -10 25 -10 6 0 3 5 -5 10 -8 5 -19 10 -25 10 -5
0 -3 -5 5 -10z"/>
<path d="M1750 2820 c-8 -5 -10 -10 -5 -10 6 0 17 5 25 10 8 5 11 10 5 10 -5
0 -17 -5 -25 -10z"/>
<path d="M3041 2804 c0 -11 3 -14 6 -6 3 7 2 16 -1 19 -3 4 -6 -2 -5 -13z"/>
<path d="M3460 2810 c8 -5 20 -10 25 -10 6 0 3 5 -5 10 -8 5 -19 10 -25 10 -5
0 -3 -5 5 -10z"/>
<path d="M1690 2795 c-14 -8 -20 -14 -15 -14 6 0 21 6 35 14 14 8 21 14 15 14
-5 0 -21 -6 -35 -14z"/>
<path d="M3501 2797 c2 -2 63 -34 134 -70 72 -37 121 -60 110 -52 -36 28 -275
147 -244 122z"/>
<path d="M1575 2740 c-3 -6 1 -7 9 -4 18 7 21 14 7 14 -6 0 -13 -4 -16 -10z"/>
<path d="M1508 2704 c-38 -20 -36 -28 2 -9 17 9 30 18 30 20 0 7 -1 6 -32 -11z"/>
<path d="M2570 2690 c0 -5 7 -10 15 -10 11 0 12 -5 5 -26 -14 -35 -13 -77 2
-72 9 3 36 81 38 111 0 4 -13 7 -30 7 -16 0 -30 -4 -30 -10z"/>
<path d="M1444 2664 c-18 -14 -18 -15 4 -4 12 6 22 13 22 15 0 8 -5 6 -26 -11z"/>
<path d="M2175 2649 c-10 -16 4 -96 19 -108 21 -18 46 -2 46 29 0 16 -5 32
-10 35 -6 4 -10 12 -9 18 3 27 -2 37 -20 37 -11 0 -23 -5 -26 -11z m30 -19 c3
-5 1 -10 -4 -10 -6 0 -11 5 -11 10 0 6 2 10 4 10 3 0 8 -4 11 -10z m15 -61 c0
-6 -4 -7 -10 -4 -5 3 -10 11 -10 16 0 6 5 7 10 4 6 -3 10 -11 10 -16z"/>
<path d="M2974 2635 c-3 -13 -7 -39 -7 -57 -2 -29 1 -33 23 -33 21 0 25 6 32
45 10 55 5 70 -21 70 -14 0 -23 -9 -27 -25z m17 -68 c-10 -9 -11 -8 -5 6 3 10
9 15 12 12 3 -3 0 -11 -7 -18z"/>
<path d="M3775 2653 c6 -6 46 -35 90 -64 99 -67 105 -71 105 -66 0 3 -39 32
-87 64 -95 65 -124 82 -108 66z"/>
<path d="M1334 2595 c-43 -29 -95 -68 -114 -85 -20 -18 -9 -12 25 13 33 24 86
61 118 82 50 33 64 45 54 45 -2 0 -39 -25 -83 -55z"/>
<path d="M3363 2528 c-19 -24 -21 -43 -6 -60 10 -11 11 -18 4 -23 -6 -3 -11 2
-11 11 0 14 -3 15 -11 7 -16 -16 -4 -43 19 -43 22 0 56 66 50 96 -4 23 -31 30
-45 12z m20 -33 c-3 -9 -8 -14 -10 -11 -3 3 -2 9 2 15 9 16 15 13 8 -4z"/>
<path d="M1784 2516 c-3 -8 0 -24 6 -36 9 -16 15 -19 25 -10 9 8 14 6 19 -6 9
-24 7 -41 -4 -24 -11 18 -25 7 -17 -15 8 -19 36 -20 43 0 10 26 -16 75 -40 76
-11 0 -15 3 -8 6 17 7 15 23 -3 23 -9 0 -18 -6 -21 -14z"/>
<path d="M4023 2490 c-29 -17 -53 -35 -53 -41 0 -6 7 -8 16 -5 20 8 64 -22 64
-43 0 -40 15 -27 37 31 36 96 23 108 -64 58z m57 -4 c0 -3 -5 -17 -10 -32 -10
-26 -12 -27 -28 -10 -16 16 -16 18 2 32 19 14 36 18 36 10z"/>
<path d="M2430 2490 c-67 -9 -84 -11 -179 -31 -70 -14 -160 -37 -186 -49 -11
-5 -51 -21 -90 -36 -109 -42 -249 -114 -239 -124 5 -5 48 10 99 35 111 54 163
76 184 80 9 2 16 4 16 5 0 1 8 3 17 5 10 2 20 -5 23 -15 5 -17 9 -18 45 -5 21
7 51 16 67 19 15 3 39 7 53 10 49 12 75 16 115 22 22 3 45 7 52 9 20 7 28 -33
48 -250 4 -33 8 -76 10 -95 2 -19 7 -62 10 -95 4 -33 8 -71 10 -85 3 -14 -2
-54 -9 -89 l-13 -64 73 6 c89 7 260 -8 331 -28 66 -19 70 -19 49 4 -17 19 -68
37 -92 33 -26 -5 -43 39 -64 167 -16 95 -20 153 -16 200 13 141 18 177 23 191
3 8 6 24 5 35 -1 16 0 17 4 3 3 -10 11 -18 17 -19 7 0 22 -2 34 -3 12 -1 20 1
17 5 -6 10 23 5 33 -6 5 -4 1 -5 -7 0 -8 5 -12 4 -7 0 10 -12 39 -16 32 -5 -3
5 2 7 11 6 8 -1 20 -9 25 -17 7 -12 9 -12 9 1 0 12 2 13 9 1 7 -11 9 -11 14 0
4 10 6 8 6 -4 1 -10 6 -15 11 -12 6 4 8 12 4 18 -3 7 1 4 10 -7 9 -11 22 -16
31 -12 9 3 14 2 11 -3 -6 -8 14 -21 41 -27 7 -1 18 13 25 32 8 23 18 34 31 34
30 0 272 -107 305 -136 4 -2 -83 -169 -98 -189 -4 -5 -57 -96 -118 -201 l-110
-192 51 -33 c69 -44 199 -170 253 -245 97 -136 162 -297 184 -459 9 -65 18
-96 33 -113 l20 -22 504 0 503 0 -6 78 c-21 322 -91 588 -224 852 -41 82 -157
270 -167 270 -5 0 -37 -23 -149 -107 -39 -29 -75 -53 -80 -53 -6 0 -21 14 -33
31 -93 126 -263 283 -417 387 -331 222 -782 336 -1154 292z m642 -204 c7 4 8
2 4 -5 -9 -13 -26 -5 -25 12 0 9 2 8 6 -1 2 -6 10 -9 15 -6z"/>
<path d="M1080 2440 c-39 -39 -11 -87 47 -81 28 3 60 61 33 61 -5 0 -10 -7
-10 -15 0 -24 -36 -37 -54 -19 -9 8 -16 19 -16 23 0 13 24 31 42 31 10 0 18 5
18 10 0 17 -39 11 -60 -10z"/>
<path d="M4121 2408 c-24 -27 -41 -52 -37 -55 7 -7 72 52 87 79 20 36 -8 23
-50 -24z"/>
<path d="M996 2411 c-4 -7 -5 -15 -2 -18 9 -9 19 4 14 18 -4 11 -6 11 -12 0z"/>
<path d="M4152 2377 c-23 -23 -42 -46 -42 -50 0 -12 28 -8 33 6 3 6 6 -2 6
-20 1 -41 21 -54 21 -14 0 28 3 31 30 31 17 0 30 5 30 10 0 6 -13 10 -30 10
-35 0 -38 10 -10 35 20 19 26 35 12 35 -4 0 -27 -19 -50 -43z"/>
<path d="M1020 2377 c0 -17 58 -73 66 -64 7 7 -45 77 -57 77 -5 0 -9 -6 -9
-13z"/>
<path d="M950 2371 c0 -5 6 -14 14 -20 12 -10 10 -16 -10 -36 -30 -30 -20 -65
21 -80 24 -8 30 -6 55 25 l29 35 -42 43 c-38 39 -67 54 -67 33z m54 -57 c20
-8 21 -38 2 -53 -7 -6 -21 -9 -30 -5 -19 7 -22 50 -3 57 6 3 13 6 14 6 1 1 8
-2 17 -5z"/>
<path d="M3693 2338 c2 -7 -6 -28 -19 -47 -22 -32 -24 -58 -3 -46 17 11 68 92
62 99 -12 11 -45 6 -40 -6z"/>
<path d="M1450 2319 c0 -7 5 -29 11 -50 10 -32 16 -37 40 -37 16 1 29 4 29 8
0 10 -64 90 -72 90 -4 0 -8 -5 -8 -11z m38 -64 c-3 -3 -9 2 -12 12 -6 14 -5
15 5 6 7 -7 10 -15 7 -18z"/>
<path d="M3717 2282 c-31 -44 -33 -55 -11 -73 14 -11 21 -8 51 24 38 43 42 80
7 85 -14 2 -28 -8 -47 -36z m28 -26 c-10 -14 -21 -26 -26 -26 -5 0 0 13 12 30
27 36 38 33 14 -4z"/>
<path d="M4206 2295 c-23 -24 -20 -51 11 -80 15 -14 30 -25 34 -25 14 0 63 62
54 68 -6 4 -15 16 -21 27 -14 26 -57 31 -78 10z m63 -19 c23 -28 -17 -68 -45
-45 -17 14 -18 31 -2 47 16 16 33 15 47 -2z"/>
<path d="M860 2270 c0 -5 4 -10 9 -10 6 0 13 5 16 10 3 6 -1 10 -9 10 -9 0
-16 -4 -16 -10z"/>
<path d="M896 2251 c-6 -10 49 -61 65 -61 18 0 9 15 -25 42 -19 16 -37 24 -40
19z"/>
<path d="M4306 2206 c-27 -24 -45 -46 -39 -49 10 -6 103 69 103 84 0 17 -14 9
-64 -35z"/>
<path d="M842 2198 c-15 -15 -15 -61 0 -76 29 -29 88 -2 88 39 0 27 -18 24
-22 -3 -4 -32 -52 -32 -56 -1 -3 17 3 26 22 33 14 5 26 12 26 15 0 10 -46 5
-58 -7z"/>
<path d="M4380 2200 c0 -5 5 -10 10 -10 6 0 10 5 10 10 0 6 -4 10 -10 10 -5 0
-10 -4 -10 -10z"/>
<path d="M4332 2165 c-30 -25 -41 -45 -24 -45 4 0 20 12 35 26 40 34 29 53
-11 19z"/>
<path d="M4352 2122 c-40 -33 -31 -50 10 -20 28 19 31 20 46 4 16 -16 15 -19
-11 -42 -16 -13 -27 -29 -25 -35 5 -15 68 39 68 58 0 12 -44 64 -53 63 -1 0
-17 -13 -35 -28z"/>
<path d="M731 2106 c-10 -12 -5 -25 25 -70 20 -31 41 -53 46 -50 5 3 7 13 4
21 -8 20 23 63 45 63 36 0 19 18 -28 29 -27 7 -55 14 -64 17 -9 2 -22 -2 -28
-10z m67 -24 c13 -9 7 -42 -8 -42 -4 0 -15 11 -24 25 -15 23 -15 25 1 25 10 0
24 -4 31 -8z"/>
<path d="M4000 2068 c0 -6 -15 -24 -32 -39 -27 -22 -31 -30 -20 -40 10 -11 21
-5 57 31 24 24 42 47 39 52 -8 12 -44 10 -44 -4z"/>
<path d="M1147 2053 c-10 -10 -8 -43 2 -43 5 0 11 8 14 18 3 14 5 13 13 -6 6
-13 13 -23 17 -23 21 2 27 0 27 -10 0 -6 -7 -8 -16 -5 -10 4 -14 1 -12 -6 7
-20 37 -22 44 -3 4 10 -6 28 -27 50 -34 34 -49 41 -62 28z"/>
<path d="M4039 2044 c-1 -2 -2 -8 -3 -14 0 -5 -17 -23 -36 -39 -31 -26 -33
-30 -17 -37 13 -5 29 4 58 32 21 21 39 41 39 45 0 7 -39 20 -41 13z"/>
<path d="M4414 2019 c-17 -19 -17 -23 -3 -47 8 -15 24 -28 34 -30 19 -4 18 -2
-2 17 -24 23 -28 33 -16 44 3 4 17 -10 31 -30 23 -34 26 -35 38 -18 18 24 18
36 -2 63 -19 28 -55 28 -80 1z m74 -28 c4 -27 -12 -21 -29 10 -9 18 -8 20 8
17 10 -2 19 -14 21 -27z"/>
<path d="M697 1933 c-31 -50 -49 -83 -44 -83 3 0 21 27 40 60 39 65 42 83 4
23z"/>
<path d="M4530 1880 c6 -11 13 -20 16 -20 2 0 0 9 -6 20 -6 11 -13 20 -16 20
-2 0 0 -9 6 -20z"/>
<path d="M4602 1745 c29 -57 54 -103 56 -101 4 5 -96 206 -103 206 -3 0 19
-47 47 -105z"/>
<path d="M595 1750 c-49 -98 -108 -240 -102 -246 2 -2 16 29 32 68 15 40 50
117 77 171 26 53 46 97 43 97 -3 0 -25 -41 -50 -90z"/>
<path d="M904 1719 c-8 -13 22 -46 33 -35 4 4 1 11 -7 16 -8 5 -12 12 -8 15 6
7 14 -1 50 -49 20 -27 22 -27 35 -10 17 23 17 40 0 25 -10 -8 -19 -4 -36 19
-22 30 -54 39 -67 19z"/>
<path d="M4665 1613 c4 -10 16 -42 27 -71 12 -29 23 -51 25 -48 5 5 -47 136
-54 136 -3 0 -2 -8 2 -17z"/>
<path d="M471 1459 c-6 -18 -11 -37 -10 -43 0 -6 7 7 15 28 8 22 12 41 10 43
-2 2 -9 -10 -15 -28z"/>
<path d="M962 1373 c-28 -73 -46 -131 -71 -229 l-11 -41 -58 13 c-31 7 -68 15
-82 18 -14 3 -36 7 -50 10 -67 15 -88 17 -93 9 -9 -14 -35 -209 -42 -315 l-7
-98 501 0 c486 0 502 1 521 20 21 21 21 20 44 162 9 54 27 126 40 161 l24 63
-202 88 c-110 49 -261 117 -334 152 -74 35 -138 64 -142 64 -5 0 -22 -35 -38
-77z"/>
<path d="M4732 1440 c0 -8 6 -31 13 -50 7 -19 13 -28 13 -20 0 8 -6 31 -13 50
-7 19 -13 28 -13 20z"/>
<path d="M446 1374 c-4 -14 -5 -28 -3 -31 3 -2 8 8 11 23 4 14 5 28 3 31 -3 2
-8 -8 -11 -23z"/>
<path d="M738 1355 c-15 -15 5 -42 30 -42 15 0 42 -4 61 -8 26 -6 33 -5 29 5
-5 17 -109 55 -120 45z"/>
<path d="M4761 1340 c0 -8 4 -24 9 -35 5 -13 9 -14 9 -5 0 8 -4 24 -9 35 -5
13 -9 14 -9 5z"/>
<path d="M425 1300 c-4 -17 -5 -34 -2 -36 2 -3 7 10 11 27 8 42 0 50 -9 9z"/>
<path d="M4782 1260 c0 -14 2 -19 5 -12 2 6 2 18 0 25 -3 6 -5 1 -5 -13z"/>
<path d="M411 1234 c0 -11 3 -14 6 -6 3 7 2 16 -1 19 -3 4 -6 -2 -5 -13z"/>
<path d="M4791 1214 c0 -11 3 -14 6 -6 3 7 2 16 -1 19 -3 4 -6 -2 -5 -13z"/>
<path d="M402 1190 c0 -14 2 -19 5 -12 2 6 2 18 0 25 -3 6 -5 1 -5 -13z"/>
<path d="M4802 1170 c0 -14 2 -19 5 -12 2 6 2 18 0 25 -3 6 -5 1 -5 -13z"/>
<path d="M392 1135 c0 -16 2 -22 5 -12 2 9 2 23 0 30 -3 6 -5 -1 -5 -18z"/>
<path d="M4812 1115 c0 -16 2 -22 5 -12 2 9 2 23 0 30 -3 6 -5 -1 -5 -18z"/>
<path d="M382 1075 c0 -16 2 -22 5 -12 2 9 2 23 0 30 -3 6 -5 -1 -5 -18z"/>
<path d="M4822 1045 c0 -16 2 -22 5 -12 2 9 2 23 0 30 -3 6 -5 -1 -5 -18z"/>
<path d="M3100 925 l0 -125 25 0 25 0 0 125 0 125 -25 0 -25 0 0 -125z"/>
<path d="M373 1005 c0 -22 2 -30 4 -17 2 12 2 30 0 40 -3 9 -5 -1 -4 -23z"/>
<path d="M2050 921 l0 -121 30 0 c29 0 30 1 30 50 l0 50 50 0 50 0 0 -50 c0
-49 1 -50 30 -50 l30 0 0 121 0 120 -27 -3 c-26 -3 -28 -7 -31 -50 l-3 -48
-49 0 -49 0 -3 48 c-3 43 -5 47 -30 50 l-28 3 0 -120z"/>
<path d="M2446 1019 c-19 -15 -26 -30 -26 -54 0 -42 25 -60 93 -70 53 -8 69
-27 44 -52 -19 -20 -73 -9 -87 18 -11 19 -45 26 -53 12 -10 -16 13 -53 42 -67
55 -29 149 -12 165 29 11 29 7 63 -10 79 -15 16 -27 20 -97 31 -32 5 -38 10
-35 28 4 31 57 36 83 7 19 -21 50 -27 60 -10 4 6 -7 24 -24 40 -25 25 -37 30
-79 30 -35 0 -57 -6 -76 -21z"/>
<path d="M4830 976 c0 -30 -16 -43 -60 -49 l-35 -4 37 -1 c42 -2 68 18 68 54
0 13 -2 24 -5 24 -3 0 -5 -11 -5 -24z"/>
<path d="M1915 971 c-11 -5 -35 -6 -52 -3 l-33 5 0 -127 0 -126 25 0 c23 0 25
4 25 46 0 40 2 45 18 39 40 -17 68 -16 94 4 52 41 45 127 -13 156 -31 17 -36
17 -64 6z m43 -53 c7 -7 12 -21 12 -33 0 -12 -5 -26 -12 -33 -7 -7 -21 -12
-33 -12 -12 0 -26 5 -33 12 -7 7 -12 21 -12 33 0 12 5 26 12 33 7 7 21 12 33
12 12 0 26 -5 33 -12z"/>
<path d="M2725 973 c-30 -7 -63 -42 -70 -74 -20 -91 116 -147 176 -71 l21 27
-25 3 c-14 2 -37 -4 -50 -13 -30 -19 -55 -11 -64 23 -12 48 39 81 76 48 10 -9
26 -13 39 -10 18 5 20 9 11 26 -6 11 -26 26 -44 34 -36 15 -37 15 -70 7z"/>
<path d="M2909 965 c-85 -46 -43 -186 51 -171 19 3 52 6 73 6 l37 -1 0 86 0
85 -30 0 c-16 0 -30 -4 -30 -9 0 -6 -12 -3 -27 5 -34 17 -41 17 -74 -1z m89
-47 c28 -28 7 -78 -33 -78 -27 0 -45 18 -45 45 0 27 18 45 45 45 12 0 26 -5
33 -12z"/>
<path d="M3233 965 c-57 -25 -71 -93 -29 -142 21 -24 32 -28 74 -28 35 0 56 6
71 19 39 36 18 47 -45 24 -26 -9 -36 -9 -48 1 -29 24 -17 31 54 31 76 0 80 4
60 55 -6 15 -24 32 -45 40 -42 18 -51 18 -92 0z m68 -35 c31 -17 22 -30 -21
-30 -42 0 -52 12 -22 29 21 13 20 13 43 1z"/>
<path d="M370 954 c0 -21 28 -35 62 -31 l33 4 -37 1 c-23 1 -41 8 -47 20 -6 9
-11 12 -11 6z"/>
<path d="M488 913 c7 -3 16 -2 19 1 4 3 -2 6 -13 5 -11 0 -14 -3 -6 -6z"/>
<path d="M1910 755 c0 -16 20 -19 58 -8 18 4 20 8 10 14 -22 15 -68 11 -68 -6z"/>
<path d="M3082 761 c-24 -15 7 -19 156 -20 122 -2 142 0 142 14 0 13 -21 15
-142 15 -79 0 -149 -4 -156 -9z"/>
</g>
</svg>
